<?xml version="1.0" encoding="UTF-8" standalone="no"?>
<svg
   xmlns:dc="http://purl.org/dc/elements/1.1/"
   xmlns:cc="http://creativecommons.org/ns#"
   xmlns:rdf="http://www.w3.org/1999/02/22-rdf-syntax-ns#"
   xmlns:svg="http://www.w3.org/2000/svg"
   xmlns="http://www.w3.org/2000/svg"
   xmlns:sodipodi="http://sodipodi.sourceforge.net/DTD/sodipodi-0.dtd"
   xmlns:inkscape="http://www.inkscape.org/namespaces/inkscape"
   xml:space="preserve"
   width="59.381504"
   height="69.219345"
   version="1.0"
   viewBox="0 0 1571.1359 1831.4372"
   id="svg272"
   sodipodi:docname="eswatini.svg"
   style="clip-rule:evenodd;fill-rule:evenodd;image-rendering:optimizeQuality;shape-rendering:geometricPrecision;text-rendering:geometricPrecision"
   inkscape:version="0.92.4 (5da689c313, 2019-01-14)"><metadata
     id="metadata901"><rdf:RDF><cc:Work
         rdf:about=""><dc:format>image/svg+xml</dc:format><dc:type
           rdf:resource="http://purl.org/dc/dcmitype/StillImage" /><dc:title /></cc:Work></rdf:RDF></metadata><sodipodi:namedview
     pagecolor="#ffffff"
     bordercolor="#666666"
     borderopacity="1"
     objecttolerance="10"
     gridtolerance="10"
     guidetolerance="10"
     inkscape:pageopacity="0"
     inkscape:pageshadow="2"
     inkscape:window-width="1858"
     inkscape:window-height="1016"
     id="namedview899"
     showgrid="false"
     fit-margin-top="0"
     fit-margin-left="0"
     fit-margin-right="0"
     fit-margin-bottom="0"
     inkscape:zoom="8.8205675"
     inkscape:cx="23.455306"
     inkscape:cy="25.536401"
     inkscape:window-x="62"
     inkscape:window-y="27"
     inkscape:window-maximized="1"
     inkscape:current-layer="svg272" /><defs
     id="defs181"><style
       type="text/css"
       id="style179"><![CDATA[.str1{stroke:black;stroke-width:10;stroke-miterlimit:3.864;stroke-opacity:0.501961}.str3{stroke:black;stroke-width:50;stroke-miterlimit:3.864}.str2{stroke:#3F3E3F;stroke-width:10;stroke-miterlimit:3.864}.fil7{fill:none;fill-rule:nonzero}.fil2{fill:#FEFEFE}.fil0{fill:#FEFEFE}.fil5{fill:#D9DADA;fill-rule:nonzero}.fil6{fill:#2B2A29;fill-rule:nonzero}.fil4{fill:black;fill-rule:nonzero}.fil3{fill:#FEFEFE;fill-rule:nonzero;fill-opacity:0.501961}]]></style></defs><g
     id="Plan_x0020_1"
     transform="matrix(0.38549425,0,0,0.36611593,-4239.252,-4008.6884)"
     stroke-miterlimit="4"
     style="stroke:#ffffff;stroke-width:36.45999908;stroke-miterlimit:4;stroke-dasharray:none"
     inkscape:export-xdpi="300"
     inkscape:export-ydpi="300"><path
       d="m 13802.955,12501.081 c -42.096,8.415 -61.07,33.682 -105.264,33.682 -96.826,0 -178.967,14.755 -239.99,-58.949 -16.853,-21.048 -4.219,-56.851 -25.267,-75.778 -44.218,-40.021 -86.337,-48.436 -126.313,-92.63 -37.9,-40.022 -52.655,-92.63 -109.482,-92.63 -65.289,0 -71.583,86.29 -134.727,101.045 -105.264,25.267 -178.967,21.048 -269.477,75.777 -58.949,35.78 -54.753,94.729 -75.801,160.018 -33.682,103.166 -107.385,136.871 -176.846,218.942 -128.433,151.579 -178.944,254.769 -252.624,437.908 -54.73,136.848 -143.165,202.114 -143.165,349.474 0,90.533 113.679,94.751 168.432,164.213 79.997,101.045 48.413,202.09 117.897,311.573 109.46,170.552 134.727,395.788 336.84,395.788 52.609,0 84.216,-16.829 136.825,-16.829 h 206.309 c 126.335,0 200.038,25.267 326.351,25.267 71.558,0 122.093,8.415 181.041,-33.705 48.413,-33.681 29.463,-92.63 33.682,-151.579 10.512,-132.605 18.927,-208.383 50.534,-336.84 23.146,-92.63 88.412,-124.191 151.579,-193.675 v 0 c -29.486,-61.024 -84.215,-82.095 -84.215,-151.58 0,-187.358 14.731,-296.841 58.948,-480.004 27.389,-111.558 126.312,-153.677 126.312,-269.477 0,-73.68 -54.729,-101.068 -84.192,-168.431 -21.072,-52.609 -27.365,-111.558 -67.387,-151.58 z"
       id="path200"
       stroke-miterlimit="4"
       inkscape:connector-curvature="0"
       style="fill:#408b41;fill-opacity:1;fill-rule:nonzero;stroke:#ffffff;stroke-width:88.97899628;stroke-miterlimit:4;stroke-dasharray:none;stroke-opacity:0.94100001" /></g></svg>