<svg xmlns="http://www.w3.org/2000/svg" xml:space="preserve" width="157.018" height="239.643" version="1.0" viewBox="0 0 4154.425 6340.561" id="svg272" clip-rule="evenodd" fill-rule="evenodd" image-rendering="optimizeQuality" shape-rendering="geometricPrecision" text-rendering="geometricPrecision"><defs id="defs181"><style type="text/css" id="style179"><![CDATA[.str1{stroke:black;stroke-width:10;stroke-miterlimit:3.864;stroke-opacity:0.501961}.str3{stroke:black;stroke-width:50;stroke-miterlimit:3.864}.str2{stroke:#3F3E3F;stroke-width:10;stroke-miterlimit:3.864}.fil7{fill:none;fill-rule:nonzero}.fil2{fill:#FEFEFE}.fil0{fill:#FEFEFE}.fil5{fill:#D9DADA;fill-rule:nonzero}.fil6{fill:#2B2A29;fill-rule:nonzero}.fil4{fill:black;fill-rule:nonzero}.fil3{fill:#FEFEFE;fill-rule:nonzero;fill-opacity:0.501961}]]></style></defs><g id="Plan_x0020_1" transform="translate(-15931.315 -4065.57)" stroke="#000" stroke-width="36.46" stroke-miterlimit="4" stroke-dasharray="none"><path d="M17707.983 8330.54c-5.037 0-5.316 7.281-5.316 12.313v39.18c-2.516 12.87-2.516 20.424-2.516 33.58 0 16.513 6.153 27.983 19.03 38.059h8.954l3.358-68.286c-2.243-17.066-1.4-27.984-10.076-42.533-3.358-5.875-6.438-12.313-13.434-12.313zm1818.376-1994.668c.564 5.323 0 8.397 0 13.707 0 21.558 5.317 33.028 8.397 54.573 22.66-1.673 26.862-28.826 26.862-51.487 0-15.107-20.145-16.793-35.259-16.793zm458.365-2228.605c7.281 0 10.639-5.602 17.914-5.602 6.16 0 6.711 8.117 6.711 14.277v24.06c0 3.923-3.359 5.596-3.359 9.519v13.707h13.156c5.038 0 7.56-2.237 12.591-2.237 14.277 0 15.671 19.03 15.671 33.306v10.348c-12.312 1.965-24.625 7.839-24.625 20.151 0 6.16 7.839 6.16 12.313 10.07 6.165 5.323 9.232 9.518 14.549 15.67v12.592c-13.428.285-20.988-.279-34.422-.279-12.306 0-26.019 5.602-26.019 17.908 0 6.166 5.044 8.96 10.076 12.32 8.954 6.159 7.832 16.507 7.832 27.425 0 9.512-10.627 11.749-13.434 20.703-6.147 18.75-11.47 27.704-21.267 44.776-12.312 9.797-26.862 15.392-26.862 31.342 0 11.755 10.076 15.671 15.671 25.74 6.99 12.877 11.191 22.11 11.191 36.938 0 18.757-10.912 28.263-21.266 43.655-6.717 9.803-9.797 16.514-13.428 27.99-7.275 22.109-20.151 33.3-20.151 56.524 0 15.108 16.792 19.867 16.792 34.98v25.183c0 7.56-5.037 10.912-5.037 18.472V4788.1c0 15.962 19.866 16.234 34.136 23.23 11.198 5.596 8.954 18.751 8.954 31.342 0 9.518-8.954 12.877-8.954 22.389 0 25.74-1.121 61.562 24.625 61.562 4.759 0 5.596-4.48 10.076-6.717 7.832 7.833 13.434 14.55 13.434 25.747 0 9.518-7.838 13.992-7.838 23.503 0 6.99 5.595 10.349 5.595 17.357 0 18.187-18.187 22.097-27.977 37.489-4.202 6.717-5.323 12.04-8.961 19.03-2.794 5.322-2.794 13.434-8.954 13.434-5.316 0-5.874-5.875-8.954-10.076-6.153-8.39-14.549-8.954-24.904-8.954-3.079 0-4.473.843-7.559 1.115v13.713c0 15.393 19.593 15.671 25.746 29.942 3.359 7.839 2.516 13.713 1.122 22.388 0 17.636.279 27.432.279 45.055 0 30.785-1.122 48.42-4.759 79.198-1.958 17.35-22.103 17.63-39.175 21.26-12.591 2.808-14.277 15.12-19.029 26.869v9.518c5.874-.285 9.518 0 15.392 0 7.275 0 10.354-5.317 15.95-9.518 4.759 9.797 8.954 15.113 8.954 25.747 0 15.392-8.954 23.503-8.954 38.895v24.061c0 25.468 10.075 39.181 10.075 64.649 0 11.755-6.996 17.065-13.434 26.862-7.56 11.47-11.47 18.75-19.029 30.22-7.269 10.919-12.034 16.793-19.03 27.984-4.753 7.833-6.438 17.908-15.671 17.908-6.438 0-9.797-.551-16.223-.551-10.918 0-16.234 7.832-24.073 15.107-13.267 12.157-26.515 16.885-34.032 31.794-2.385 4.778-1.772 4.233 3.266 3.811 19.154-1.63 30.276-12.102 50.917-12.102 13.434 0 15.671 17.908 29.105 17.908 9.518 0 9.791-12.033 14.55-20.145 8.396-13.985 22.66-16.792 39.174-16.792 5.875 0 5.044 7.838 6.717 13.434 3.923 12.591 7.839 20.151 7.839 33.579 0 13.998 3.631 34.7-10.354 34.7h-23.231c-.279 5.317 0 8.403 0 13.714 0 18.193-5.032 30.505 3.358 46.728 7.281 13.998 19.03 15.95 29.105 27.99 15.114 17.629 19.03 32.178 19.03 54.845 0 18.472-22.109 19.03-34.701 32.458-4.752 5.322-1.121 11.47-1.121 18.757v9.232c-7.343 14.686-3.458-40.296-22.94-40.296-10.36 0-16.235 10.912-16.235 21.267 0 9.518 3.359 15.113 3.359 24.625 0 9.797-7.269 17.065-7.839 26.862 13.155 5.317 24.904 9.518 27.984 23.503l-3.08 15.671c-29.378 0-45.892 5.323-75.269 8.96-.279 2.801-1.122 4.196-1.122 6.99 0 10.076 15.113 6.16 24.625 8.675 9.797 2.522 15.671 10.919 15.671 21.273 0 14.27-12.87 19.302-14.549 33.58-2.244 18.186-5.323 40.295-23.51 40.295-9.09 0-14.5-4.064-22.202-6.487-6.209-1.946-6.488-1.94-2.2 2.912 9.685 10.98 18.924 17.722 22.165 32.674l-1.122 7.56c-6.438 0-10.069.279-16.513.279-8.954 0-13.707-5.595-22.661-5.595-17.14 0-29.13.712-43.035 8.73-4.251 2.448-4.821 2.597.03 4.945 13.787 6.717 35.165 2.194 35.165 17.667 0 6.71-7.553 7.553-12.312 12.312-17.344 17.35-29.657 25.19-48.129 41.412-11.749 10.354-16.792 19.03-27.983 30.226-9.233 9.227-13.986 19.03-26.862 19.03-5.602 0-8.118-3.358-13.713-3.358-3.923 0-5.875.563-9.797 1.115-.279 4.48-1.122 6.996-1.122 11.47 0 8.96 4.48 13.719 4.48 22.673 0 12.87-9.511 19.03-20.145 26.304-22.667 15.392-36.665 27.426-47.013 52.609l-4.48 1.115c-5.031-5.031-7.553-11.19-14.549-11.19-14.277 0-19.03 12.59-30.227 21.266-4.195 3.08-9.506.279-13.428 3.358-2.795 2.243-2.516 5.875-4.48 8.954-5.044 7.281-13.428 9.797-13.428 18.757v14.55c0 19.866-5.874 31.336-13.434 49.523-11.47-1.674-15.671-8.384-26.862-11.191-.279 1.964-2.243 2.515-2.243 4.48 0 6.438 4.48 9.796 4.48 16.235 0 27.14-20.988 40.01-44.776 53.166-15.672 8.675-24.626 17.908-42.534 17.908-8.675 0-12.591-7.839-21.266-7.839-5.874 0-7.839 5.044-12.313 8.954-9.796 8.403-14.828 15.399-22.388 25.747-16.792-8.39-8.402-32.736-24.625-41.418-6.717 11.197-11.761 19.03-23.503 24.625-10.076 4.76-23.51 5.602-23.51 16.793 0 8.675 11.749 7.56 16.793 14.55 4.195 5.88 5.595 12.59 5.595 20.15-4.48 13.707-7.838 30.221-22.388 30.221-14.549 0-20.715-11.19-34.701-14.55l-7.281 1.116v31.342h28.548c1.121 8.682 3.358 13.713 3.358 22.388 0 6.439-2.237 11.198-6.71 15.671h-23.231c-8.39 0-13.434-3.358-21.824-3.358h-30.785c-5.874 0-8.396 4.48-13.713 6.717-25.747 11.76-39.453 25.747-67.722 25.747-9.79 0-16.793-.28-24.061-6.717-4.759-4.202-5.874-11.198-12.313-11.198-8.117 0-10.639 8.118-17.908 11.198-26.31 12.033-42.26 17.629-70.523 22.388-15.671 2.515-25.467.278-40.296 5.595-5.874 1.958-7.281 7.833-11.191 12.313-10.075 10.918-19.872 15.67-34.7 15.67-11.47 0-13.156-15.67-24.625-15.67-6.996 0-10.919 4.474-17.908 4.474-16.514 0-19.309-22.382-35.823-22.382-14.828 0-26.31 2.515-35.816 13.428 8.676 10.918 23.783 3.637 33.579 13.434 6.718 6.717 7.839 13.998 7.839 23.503 0 20.43-21.273 26.59-40.302 33.585-16.787 6.16-21.267 23.504-39.175 23.504-14.277 0-21.545-8.111-35.822-8.954-4.474 13.998-2.237 25.189-12.306 35.816-19.594 20.715-43.655 9.233-71.645 15.671-10.639 2.243-19.023-2.795-27.983 3.359-11.47 7.838-6.99 20.993-14.55 32.463-5.044 7.554-11.191 10.348-19.029 14.55-9.797 5.323-13.149 15.67-24.626 15.67-7.832 0-7.274-9.796-12.312-15.67-13.707-15.671-26.311-25.747-47.013-25.747-4.474 0-7.833.843-11.191 3.359l-1.122 4.48c22.946 8.954 38.059 24.904 38.059 49.25 0 13.155-7.559 23.23-20.145 26.862-13.998 3.922-26.025 4.48-33.585 16.793-6.717 10.918-15.392 15.95-16.786 29.105-.508 4.418-3.755 50.52-13.323 39.465-6.426-7.448-5.391-16.867-9.065-27.153-4.759-12.87-12.313-23.51-26.026-23.51-14.308 0 14.828 41.14 14.828 63.249 0 12.027-10.633 17.623-21.26 22.94-12.04 5.874-20.151 8.117-31.348 15.677-8.675 5.874-9.518 14.27-14.55 23.503-6.996 12.591-11.191 21.267-11.191 35.816h-23.23c-10.076 0-17.345 3.929-22.667 12.313-10.349 16.513-.558 45.897-20.145 45.897-4.759 0-6.16-4.2-10.076-6.717-11.47-7.56-18.472-12.591-31.342-17.908-1.958 3.353-4.753 6.99-6.711 10.07-8.402 9.518-7.281 19.308-11.197 31.342-3.08 8.954-11.191 12.591-11.191 22.109v31.9c0 10.36-4.759 19.03-14.556 22.11-6.159-12.592-4.195-23.232-13.428-33.586-14.828-16.508-28.547-21.54-42.539-39.175-4.753-6.153-10.076-8.675-13.428-15.67-6.165-12.586 0-23.504-4.48-36.938-3.08-9.512-8.396-13.707-13.428-22.388-17.635-30.5-53.451-31.064-63.806-64.922-10.354-33.579-15.392-60.162-45.891-78.349-12.877-7.56-18.187-15.95-31.342-22.388-6.996-3.358-15.393-2.795-17.908-10.075-3.923-11.47-4.759-19.309-10.076-30.227-6.438-13.15-19.03-13.986-31.342-22.382-19.03-12.87-25.747-24.625-42.533-40.296-26.311-24.346-46.741-37.496-82.836-41.418-13.428-1.394-21.545-1.958-33.579-7.832-22.66-11.198-28.547-33.022-53.73-35.823l-1.115 4.48c13.706 23.225 22.939 38.332 47.013 50.372 13.428 6.717 22.661 7.554 35.816 14.55 24.061 12.876 34.422 26.019 58.21 40.296 35.816 21.266 55.397 34.143 85.066 63.8 15.108 15.119 17.908 29.383 33.579 43.654 7.275 6.717 8.676 13.998 16.793 19.03 20.424 12.591 40.296 13.713 51.487 34.7 14.829 27.426 14.556 48.693 35.822 71.639 19.303 20.987 39.454 32.736 41.412 61.562.843 11.761 1.679 19.873 8.96 29.105 10.627 13.428 26.862 18.187 26.862 35.538v25.182c0 23.795-4.48 36.938-4.48 60.733h-13.428c-2.243-7.281-8.111-11.755-15.671-11.755-7.839 0-13.998 4.195-16.793 11.19-1.958 4.475-1.958 11.192-6.995 11.192h-24.068c-9.512 0-12.591 7.838-19.308 14.555-16.235 16.235-15.114 37.502-35.816 47.014-27.984 13.149-40.018 27.426-69.402 39.174-11.754 35.816-42.254 43.376-62.684 74.997-13.428 20.709-25.189 29.378-41.411 48.129-8.961 10.354-13.434 22.388-27.147 22.388h-40.018c-1.394 12.312 0 20.715-5.595 31.342-6.99 13.434-20.988 12.591-32.458 22.388-8.117 6.99-11.197 12.876-17.914 21.266-8.396 10.64-19.866 9.797-33.579 10.076-11.47.273-17.629 4.474-29.099 4.474-13.713 0-15.12-16.514-20.151-29.105-8.291-20.331-20.003-33.133-39.137-41.182-3.632-1.531-3.409-1.816-3.929 2.125-.434 3.222-.589 5.899-.589 9.679 0 15.107 1.122 24.061 5.596 38.338 3.637 11.47 13.434 15.671 13.434 27.705l-2.572 12.256c-4.201 1.054-6.407 2.894-9.183 4.251-5.075 2.498-9.134 1.742.173 2.491 4.883.41 8.899.155 14.94-.248v12.028c0 3.922-4.48 4.474-6.717 7.56-10.075 13.706-12.312 25.182-12.312 42.254v27.14l8.954 32.465v8.954c-2.516.272-3.923 1.115-6.438 1.115-12.592 0-18.466-10.07-31.064-10.07-9.79 0-16.036-.966-25.548.428-6.55-3.755-14.258.62-18.664 7.405h22.109c11.749 0 19.309 11.76 19.309 23.503 0 11.476-10.349 14.835-17.908 23.51-10.076 11.761-14.277 20.709-17.908 35.822l1.115 7.833c13.713.843 25.747.279 33.579 11.19 21.824 29.949 13.992 56.532 31.342 89.547 2.516 4.759 8.111 3.637 13.434 4.48 18.751 3.08 35.259-1.673 47.013 13.434 13.986 18.187 19.03 33.022 19.03 55.967 0 12.586-2.807 22.11-12.319 30.22-5.589 4.754-14.549 5.596-14.549 13.156v9.233c14.549 1.115 31.342 6.16 31.342 20.709 0 24.904-22.382 34.98-22.382 59.883 0 14.27 1.394 33.58 15.665 33.58 8.681 0 11.197-10.628 11.197-19.31v-20.708c0-8.954 6.147-13.992 14.55-18.187 2.515 5.317 7.832 7.281 7.832 13.156 0 10.912-1.115 17.344-1.115 28.262l-5.596 48.129c-.279 10.918-1.121 17.356-1.121 28.262v8.954c0 20.715 16.792 30.22 16.792 50.936v22.94c0 10.639-4.48 16.513-4.48 27.152 0 9.512 6.153 13.986 8.954 22.94 3.916 12.313 3.359 20.424 3.359 33.58 0 41.417-16.793 63.805-16.793 105.216 0 9.525 3.916 14.277 5.602 23.51 3.631 19.03 3.079 30.22 5.595 49.25 1.394 11.191 5.596 17.63 5.596 29.1 3.358.57 5.874 1.4 8.954 2.242 2.515-6.717 4.48-10.918 4.48-18.186v-21.83c0-18.188-5.596-27.984-5.596-46.178 0-7.553 9.233-9.226 16.787-10.069 7.559-.843 8.954-9.512 10.075-16.793 1.965-13.985 6.996-21.818 13.434-34.7 9.233 2.243 11.191 11.76 12.313 21.266l-2.243 8.96v31.615c0 25.747-10.07 39.745-10.07 65.485v55.41c0 34.422-17.914 52.05-17.914 86.473 0 20.15 19.03 34.136 39.181 34.136 4.474 0 6.717-2.237 11.191-3.358h8.954v11.47c0 5.88-4.753 8.675-5.596 14.277-1.394 8.675-.563 15.392-5.595 22.381-6.159 8.682-15.671 9.797-21.267 19.03-19.029 30.5-36.937 44.219-48.134 78.355v58.483c0 36.938-21.546 54.573-25.747 91.51-2.516 23.226-9.791 35.265-17.908 57.083-4.201 11.198-4.201 19.594-11.191 29.106-25.189 33.858-40.296 59.325-40.296 101.858 0 9.525 8.111 13.435 15.671 19.03 17.065-28.535 19.872-47.85 30.221-79.47 3.916-12.034 8.675-18.466 16.792-27.984 9.506-10.919 14.55-23.51 29.099-23.51 6.438 0 12.313 4.48 12.313 10.918 0 13.707 1.121 21.546 1.121 35.253v8.954c0 35.264-28.262 46.74-47.013 76.96-19.03 30.785-31.621 46.171-57.083 71.639-16.513 16.507-21.545 29.663-35.822 48.128-22.109 28.548-39.453 41.14-71.638 57.09-12.591 6.159-19.03 12.033-32.464 16.786-71.08 25.746-99.894 62.684-172.375 81.713-29.942 7.839-46.456 12.313-77.234 15.672-27.432 3.08-40.296 15.95-67.164 21.266-17.066 3.359-27.135 11.47-43.655 16.793-12.585 17.629-28.541 20.424-50.365 24.625-19.594 3.922-30.227 6.438-49.251 11.19-34.7 8.676-53.172 17.915-83.95 35.823-10.64 6.16-18.478 7.28-29.106 13.434-39.174 23.504-62.405 34.143-104.101 52.603-22.946 10.075-33.58 19.03-55.961 30.226-18.751 9.233-39.181 14.829-39.181 35.537v29.663c0 8.954-3.359 13.428-5.596 22.11-1.964 8.396-4.752 17.908-13.434 17.908-13.149 0-15.95-16.793-29.099-16.793-13.434 0-13.155 17.071-19.029 29.105-8.118 16.235-20.43 19.309-34.701 30.221-19.03 14.555-26.311 26.31-41.418 44.776-7.281 8.954-13.706 12.591-19.023 23.503 6.99 4.48 13.428 2.516 21.266 5.596 8.676 3.358 9.797 12.04 12.313 21.273 3.91 13.149 4.195 30.22 17.908 30.22 6.996 0 9.797-6.717 16.786-6.717 25.468 0 13.713 52.609 39.181 52.609 8.954 0 13.434-9.797 13.434-18.751v-17.908c0-9.791 8.948-14.556 17.908-18.187 7.56-3.08 8.675-13.434 17.066-13.434h12.591v15.95c0 19.872-13.713 28.547-18.466 47.856-6.717 27.141-4.201 44.218-16.792 69.395-10.349 20.988-24.625 31.342-24.625 54.573v24.061c0 15.392-8.954 23.504-8.954 38.896v0l-271.998-16.781v0c-7.838-16.222-22.388-21.824-22.388-40.296 0-49.808 3.916-78.913 15.671-127.605 7.281-29.657 33.579-40.854 33.579-71.638 0-19.588-14.549-26.869-22.382-44.777-5.601-13.985-7.274-29.656-17.914-40.296v0c4.48-29.105 15.671-44.206 15.671-73.311v-54.846c0-52.057 23.504-78.355 33.579-129.29 15.12-72.754 9.518-115.845 15.671-190.29 3.359-46.45 17.908-72.19 17.908-118.646 0-55.41-43.654-80.592-43.654-136.001v-269.76c0-29.664-17.908-43.655-21.261-73.318-2.794-26.298 10.634-45.892-4.48-67.165-20.151-27.983-36.373-41.969-49.25-73.875-25.747-62.12-33.015-103.63-51.487-168.558v0-37.402l141.039-116.409 194.764-205.96c36.938-18.466 94.026-10.628 94.026-51.488 0-24.06-38.059-25.182-38.059-49.25 0-9.511 6.717-13.434 13.434-20.151 5.044-15.107 15.671-23.503 15.671-39.732v-81.708c0-45.34 58.204-44.776 82.83-82.277 11.761-17.909 3.922-34.701 8.954-55.968 3.358-14.555 13.434-20.15 20.151-33.579 8.954-18.465 10.075-35.258 26.862-47.013 9.524-6.717 19.593-6.717 26.868-15.671 15.671-18.466 15.113-34.7 29.099-53.73 6.159 3.358 8.402 11.19 15.671 11.19 24.067 0 31.342-29.656 31.342-53.723 0-24.625-9.505-38.06-11.191-62.685 0-20.702-3.916-43.654-24.625-47.013 0-18.465 3.359-33.579-8.96-47.013-13.428-14.55-29.099-22.388-29.099-42.533 0-42.533 49.25-55.967 49.25-98.5 0-20.703-35.816-19.588-35.816-40.296 0-32.464 0-55.404 20.145-80.599 11.755-15.1 28.547-22.388 28.547-41.97 0-21.83-.563-34.7 0-56.53 24.626 0 38.611-20.145 47.565-42.533 6.717-16.793 17.914-25.747 17.914-44.213v-54.287l-33.579-85.073c2.801-24.625 16.787-36.374 31.342-55.967 18.472-25.183 19.024-46.45 29.099-76.118 3.359-10.627 11.198-17.345 11.198-29.1 0-24.624-51.494-11.197-51.494-35.822 0-53.166 26.862-81.143 26.862-134.322 0-30.772-2.237-53.16-22.382-76.112-10.075-11.191-29.105-13.434-29.105-29.1 0-27.99 42.533-30.226 42.533-58.21 0-11.748-15.107-12.312-24.625-17.908-7.268-4.48-4.474-14.55-11.191-20.15-21.824-18.46-39.181-25.177-64.921-38.054-44.212-21.824-66.043-44.212-114.171-58.204-40.303-11.755-66.601-6.717-105.224-22.388-45.891-19.03-59.877-64.921-109.691-64.921-29.663 0-46.449 11.19-76.118 11.19-22.94 0-38.611-15.106-47.014-35.821-5.595-14.55.57-33.016-13.428-40.297-31.342-16.222-53.73-24.625-89.552-24.625-39.175 0-54.846 35.823-94.02 35.823-15.107 0-20.151-13.435-33.579-20.152-15.107-7.268-27.42 0-44.776 0-34.137 0-53.731 8.954-87.861 8.954-9.524 0-14.556-1.673-24.074-2.237v-81.143c0-21.837.527-22.345-2.832-44.175l-.365.043c4.945-.626 8.873-2.801 11.036-7.635 10.429-23.336-7.839-37.228-7.839-61.853 0-30.221 13.434-45.898 13.434-76.119 0-28.535-33.585-36.374-33.585-64.921 0-9.097 1.165-17.17 3.582-25.344 31.868-28.423 63.093-29.086 106.115-39.577 64.364-15.671 99.065-31.342 163.428-42.533 83.393-14.55 129.842-36.938 214.909-42.54 21.836-1.115 30.226-17.35 51.493-22.382 40.296-10.075 56.531-34.142 94.026-51.493 34.143-15.67 58.204-15.113 94.02-26.862 32.464-10.64 49.814-23.503 82.83-33.579 29.669-8.954 43.103-24.073 71.638-35.822 73.324-30.22 129.849-24.625 201.487-60.441v0l2.237 5.595c11.191-.557 17.908 0 29.105 0 32.457 0 44.218-26.862 73.875-39.174 1.122 7.832 2.237 11.742 2.237 19.58 0 21.831-11.749 32.47-13.434 54.295 40.296 13.428 50.372 44.218 73.875 78.349 12.319 17.914 9.524 47.013 31.348 47.013 19.024 0 22.382-24.625 41.412-24.625 10.076 0 10.076 14.55 19.03 17.908 16.792 6.717 26.862 8.96 44.776 8.96 15.671 0 21.266-15.107 35.816-20.15 19.029-6.718 34.7 1.12 53.73-6.718 21.267-8.39 33.021-22.388 56.531-22.388h26.298c5.044 21.837-2.794 41.418 13.434 55.973 13.992 12.877 35.816 13.992 35.816 33.022v92.905c0 17.914 8.954 27.42 8.954 45.334 0 34.694-10.069 55.409-29.099 83.944-8.39 12.877-22.388 17.357-22.388 33.028v50.371c0 24.062-21.824 31.343-31.342 53.16-9.512 21.837-12.864 35.265-24.625 55.968-7.832 13.998-26.862 16.792-26.862 33.585 0 32.457 31.342 44.77 31.342 77.234 0 25.189-2.794 38.617-8.96 63.8 3.922.563 5.044 4.48 8.96 4.48 8.954 0 13.428-6.718 22.382-6.718 12.877 0 24.631 8.954 24.631 21.83v48.136c0 24.625 22.382 33.015 42.533 46.449 27.426 18.472 39.739 33.021 62.685 55.96 17.908 17.915 27.977 31.343 49.25 44.777 19.029 11.755 49.25 10.64 49.25 33.58 0 36.937-42.533 47.576-42.533 84.514v20.703c8.954 1.121 13.428 4.48 22.382 4.48 10.639 0 14.556-11.191 25.195-11.191h64.357c21.267-19.03 13.428-43.655 17.908-71.639 4.474-27.426 11.191-43.654 11.191-71.644 0-36.374-51.487-41.97-51.487-78.35 0-24.06 17.908-36.373 22.388-60.446 7.275-21.818 13.428-34.695 20.145-55.968 5.038-15.665 3.359-38.059 20.151-38.059 19.024 0 22.952 21.837 40.297 29.105 15.664 6.717 27.425 6.717 44.77 6.717 26.868 0 40.296-15.107 62.684-29.105 24.625-15.1 51.493-25.176 51.493-54.281 0-36.387 1.116-56.532 1.116-92.905 0-21.83 4.399-218.187 4.48-246.821 13.998-19.03 29.662-22.388 50.371-33.58 30.785-16.792 44.77-43.096 44.77-78.354 0-4.474-3.947-3.123-5.068-7.034v0l-389.534-521.91-92.688 2.758-22.617-190.271c-2.194-72.742-19.383-141.982-17.524-215.188 2.125-83.77 94.219-44.454 112.511-96.833 18.18-52.039-20.889-57.114-39.578-87.774-16.662-27.352-10.094-58.743-6.785-90.042l149.263 3.966 1.499.037c8.954 1.121 13.341 2.354 22.295 2.354 21.825 0 33.579-6.717 55.404-6.717 30.784 0 48.692 4.48 79.47 4.48 47.577 0 74.446-8.396 122.01-13.428 47.577-5.044 57.653-62.684 105.218-62.684 15.113 0 22.388 8.954 35.822 15.671 42.533 21.267 62.684 39.733 102.98 64.921 21.831 13.428 33.022 31.336 58.768 31.336h45.892c27.419 0 42.539-10.627 65.479-24.618 11.191-6.718 13.434-22.389 26.862-22.389 16.235 0 21.83 17.908 38.059 17.908 11.755 0 20.151-6.153 26.862-15.67 14.549 8.39 16.793 26.861 33.585 26.861 10.07 0 12.306-13.428 22.382-13.428 18.478 0 17.357 31.336 35.822 31.336 8.397 0 11.755-8.947 20.145-8.947 6.717 12.306 13.998 20.708 26.868 26.862 2.801-12.313 2.801-29.106 15.672-29.106 18.471 0 25.188 14.55 42.533 20.152l8.954-2.244c2.8-19.58 15.113-35.816 34.7-35.816 12.313 0 18.472 8.954 30.785 8.954h15.107v-26.862h12.876c8.39 0 12.871 6.711 21.267 6.711h26.304c0-43.097 17.351-66.6 40.296-102.974 13.992-22.388 3.923-48.135 24.625-64.921 11.191-8.954 22.946-1.122 38.053-2.237 12.877-.57 20.152-4.48 33.028-4.48 25.747 0 39.732 2.237 65.479 1.121 0 11.743-5.602 20.703 0 30.22 7.832 12.865 24.067 9.506 38.053 15.672 21.273 9.506 26.31 30.22 49.256 35.816 7.281-21.83 9.518-40.296 29.099-51.487 28.548-16.793 52.609-6.717 85.072-15.671 27.426-7.281 40.86-24.625 69.396-24.625 17.356 0 27.432 6.717 44.776 6.717 18.472 0 17.356-31.342 35.816-31.342 10.075 0 14.556 6.71 24.631 6.71 17.35 0 16.235-22.945 29.099-33.578 34.701-29.663 61.563-35.265 102.98-55.968 3.923 7.275 7.281 15.671 15.671 15.671 9.518 0 5.044-16.786 13.435-20.145 20.145-8.402 35.264 7.269 55.967 0 14.549-5.044 5.038-27.432 15.671-38.059 13.434-13.434 26.862-11.19 44.77-17.908 63.806-23.51 105.217-64.363 164.543-98.5z" id="path186" fill="#408b41" fill-opacity="1" fill-rule="nonzero" stroke="#ecf0f1" stroke-width="72.19" stroke-miterlimit="4" stroke-dasharray="none" stroke-opacity=".941"/></g></svg>