<svg xmlns="http://www.w3.org/2000/svg" xml:space="preserve" width="267.963" height="231.931" version="1.0" viewBox="0 0 7089.846 6136.519" id="svg272" clip-rule="evenodd" fill-rule="evenodd" image-rendering="optimizeQuality" shape-rendering="geometricPrecision" text-rendering="geometricPrecision"><defs id="defs181"><style type="text/css" id="style179"><![CDATA[.str1{stroke:black;stroke-width:10;stroke-miterlimit:3.864;stroke-opacity:0.501961}.str3{stroke:black;stroke-width:50;stroke-miterlimit:3.864}.str2{stroke:#3F3E3F;stroke-width:10;stroke-miterlimit:3.864}.fil7{fill:none;fill-rule:nonzero}.fil2{fill:#FEFEFE}.fil0{fill:#FEFEFE}.fil5{fill:#D9DADA;fill-rule:nonzero}.fil6{fill:#2B2A29;fill-rule:nonzero}.fil4{fill:black;fill-rule:nonzero}.fil3{fill:#FEFEFE;fill-rule:nonzero;fill-opacity:0.501961}]]></style></defs><g id="Plan_x0020_1" transform="translate(-5213.072 -11253.23)" stroke="#000" stroke-width="36.46" stroke-miterlimit="4" stroke-dasharray="none"><path d="M10403.98 14344.305c-46.915 35.19-86.932 40.018-146.259 44.158-17.255 1.375-33.113-1.383-44.158 11.037-26.215 29.668-23.45 80.028-63.467 80.028-14.49 0-17.248-15.865-30.355-22.075-14.498 20.005-26.91 38.635-52.43 38.635-9.662 0-13.802-7.585-22.075-11.046-6.905 29.676-19.325 60.718-49.672 60.718-5.523 0-6.218-6.905-11.045-8.28l-11.038 2.757c-3.452 17.943-.695 33.815-13.794 46.915-9.663 9.655-27.598 2.758-35.878 13.795-11.037 14.498-4.14 31.738-13.795 46.915-11.037 17.255-33.12 13.115-44.157 30.355-11.038 17.935 2.757 35.19-2.758 55.195-8.975 31.73-31.05 45.532-57.952 63.467-13.115 8.975-11.733 30.355-27.598 30.355-13.107 0-20.012-5.522-33.112-8.28v24.84c-7.593.695-11.733 2.758-19.317 2.758-6.898 0-9.663-8.28-16.56-8.28-30.355 0-45.533 30.354-49.673 60.709 46.22 6.905 53.813 55.195 66.233 99.353 12.42 43.462 44.15 57.944 55.194 102.102l-5.522 22.075v77.27c4.14.695 6.202 5.522 11.037 5.522 15.865 0 22.763-11.045 38.635-11.045 15.865 0 13.803 22.778 24.84 33.12 10.343 9.655 23.45 9.655 30.355 22.075 11.718 19.317 5.515 35.19 5.515 57.945 6.905 1.382 9.663 5.522 16.56 5.522 14.482 0 22.762-8.272 37.252-8.272 37.253 0 53.118 30.355 90.378 30.355h15.872c2.758-34.495-8.28-60.023 11.03-88.307 10.35-15.865 31.738-11.046 41.4-27.598 14.482-25.52 16.552-63.467 46.915-63.467 6.897 0 9.655 8.272 16.552 8.272 11.038 0 11.038-15.857 19.318-22.075 19.317-15.177 31.042-30.355 55.882-30.355h56.562c64.858 0 101.423-17.935 157.993-49.672 35.197-19.317 54.515-34.495 91.072-52.437 26.215-13.1 52.43-25.52 52.43-55.188 0-12.42-18.623-10.342-22.075-22.075-3.445-12.42-2.758-20.005-2.758-33.12 0-25.519 35.19-24.832 60.71-24.832.695-8.28 2.758-13.1 2.758-21.38 0-20.012-8.28-30.355-11.038-50.367 20.7-6.905 34.495-5.523 55.187-13.803 27.598-11.037 27.598-42.08 27.598-71.747 0-38.635-19.318-57.952-22.075-96.587-17.24-1.383-28.277 2.757-44.15-2.758-27.597-9.655-11.725-44.837-16.56-74.512-19.317-2.063-30.355-1.375-49.672 0-7.585-19.997-12.42-33.113-13.803-55.187-22.754-1.383-40.01 10.35-57.952-2.766-15.17-11.037-14.475-28.277-24.832-44.149-8.968-13.108-19.998-19.318-22.075-35.878-2.765-23.457 4.14-57.945-19.318-57.945-11.037 0-19.317-5.522-30.355-2.765zM6736.483 12591.97c28.98 16.552 35.197 42.088 44.157 74.505 8.975 33.815 31.737 46.915 44.15 80.027 10.357 28.293-2.063 50.368 11.037 77.27 8.28 16.56 24.153 17.255 35.878 30.355 31.737 34.495 8.28 78.652 35.877 115.905 21.395 28.972 57.953 37.947 57.953 74.512 0 20.692-11.038 31.73-11.038 52.43 0 42.775 41.392 59.327 41.392 102.102 0 61.405-52.437 87.62-52.437 149.017 0 30.355 25.535 42.087 38.635 68.99 26.91 54.507 22.082 93.142 30.355 154.539 28.98-6.897 42.095-27.597 71.755-27.597 44.845 0 60.022 46.915 104.86 46.915 39.33 0 61.404-16.56 100.727-16.56 42.775 0 66.232 13.802 109.007 13.802 33.112 0 55.187-1.382 82.785-19.325 27.597-17.935 27.597-45.532 52.43-66.224 40.017-33.8 75.207-38.635 113.147-74.513 6.897-6.202 4.835-15.17 11.037-22.075 23.458-25.519 52.43-26.215 71.747-55.187 11.038-17.247 6.21-39.322 24.84-49.672 22.075-11.725 42.088-13.803 57.953-33.12 14.49-17.935 23.45-31.738 44.15-44.15-6.203-18.622-16.56-29.66-16.56-49.672 0-29.66 38.635-24.84 66.232-35.878 17.255-6.897 22.77-20.692 27.597-38.635 10.35-40.697 24.833-62.092 35.87-102.102 6.218-22.083-1.375-40.017 13.803-57.952 42.767-50.36 89.002-66.233 154.532-66.233 40.017 0 61.412 14.49 99.344 27.598 24.84 8.28 46.228-8.28 68.998 5.522 16.552 9.655 9.655 32.425 24.832 44.15 33.113 26.215 60.023 35.878 102.102 35.878 38.635 0 55.195-26.903 93.83-33.12 19.318 46.914 68.303 46.227 115.905 63.474 28.293 10.35 38.627 38.635 68.982 38.635 15.873 0 20.013-15.865 33.12-24.84 38.635-26.215 66.225-41.392 113.14-41.392 13.802 0 20.012 11.037 33.12 13.795 82.785 20.7 130.395 33.12 215.25 33.12 8.272-16.56 22.074-21.38 33.112-35.878 25.535-32.417 15.177-63.467 22.075-104.867 2.077-15.857 20.012-17.935 24.84-33.112 8.272-26.215 17.934-46.907 24.832-74.513l11.037 2.766c2.758-37.94 22.77-55.195 41.393-88.308 20.7-37.252 17.255-66.912 35.877-104.867 15.873-32.433 55.195-22.075 91.065-27.59 37.947-6.217 55.195-24.84 91.065-38.642 33.12-12.413 70.38-28.285 102.11-44.15 8.936-11.053 22.074-8.28 33.112-16.553 16.56-12.42 8.922-34.54 22.075-49.672 14.436-16.606 30.981-16.674 49.672-27.597 26.154-15.292 20.67-44.876 38.635-68.99 8.25-11.068 20.654-10.449 33.12-16.56 24.1-11.824 27.598-36.573 27.598-63.475 0-18.63-13.803-28.293-13.803-46.907 0-18.638 19.317-25.535 19.317-44.158 0-27.59-16.56-41.392-16.56-68.99 0-11.732 10.335-16.56 13.803-27.589 4.125-13.123.718-31.639 13.795-35.878 12.45-4.033 23.496-.619 35.877-5.522 24.168-9.571 17.034-39.109 35.87-57.953 8.074-8.066 15.865 11.045 27.598 11.045 20.7 0 15.124-31.852 33.12-41.392 15.796-8.387 27.597-11.045 44.15-19.325 19.317-9.655 20.699-28.973 33.112-46.907 31.042-44.845 53.82-87.124 107.624-85.55 63.475 1.863 93.082-47.656 132.465-96.588 31.684-39.368 67.585-44.287 102.102-82.784 19.432-21.67 20.677-51.147 49.673-57.953 38.612-9.066 65.529 8.25 102.102-8.28 35.167-15.895 45.509-47.739 82.792-55.187 55.844-11.167 74.452-48.366 118.662-85.55 29.599-24.901 53.064-30.469 88.308-46.915 16.499-7.707 22.762-22.075 41.392-22.075 26.215 0 37.252 24.833 63.467 24.833 14.483 0 19.371-12.917 33.12-16.553a97.301 97.301 0 0116.56-2.925v0c12.329-1.092 23.588.168 38.628.168 9.662 0 12.42 11.03 22.075 11.03 23.465 0 23.465-38.627 46.914-38.627 20.7 0 28.308 16.498 46.915 24.832 21.411 9.601 37.955.603 60.71 5.522 28.3 6.119 35.992 29.515 57.953 46.915 51.169 40.545 103.866 27.613 169.717 38.628 29.598 4.957 43.493 19.691 73.809 20.7 21.777.725 43.081-9.319 64.85-8.28 36.611 1.749 48.649 38.635 84.862 38.635 14.147 0 22.694-3.919 34.495-11.038 6.485-3.918 8.968-11.037 16.904-11.037h35.19c15.178 0 23.801 5.515 38.971 5.515 18.6 0 32.585-4.011 46.923-7.708v0c22.77 80.035 31.729 131.205 63.467 207.78 15.872 39.33 35.87 56.569 60.71 91.064 18.63 26.223 2.077 50.375 5.522 82.793 4.133 36.565 26.208 53.812 26.208 90.377v332.529c0 68.302 53.812 99.345 53.812 167.647 0 57.265-17.935 88.995-22.075 146.252-7.585 91.768-.68 144.885-19.317 234.567-12.42 62.787-41.393 95.205-41.393 159.375v67.607c0 35.877-13.795 54.492-19.317 90.37v0c-13.795 2.757-20.013 11.037-34.495 11.037-31.73 0-58.648 4.835-78.645-19.317-5.522-6.898-1.382-18.63-8.28-24.833-14.49-13.115-28.292-15.872-41.392-30.355-12.42-13.115-17.255-30.355-35.878-30.355-21.395 0-23.457 28.278-44.15 33.113-34.494 8.28-58.647 6.897-88.307 24.832-19.317 11.725-17.942 31.043-24.84 52.438-11.037 33.807-35.19 44.852-57.952 71.747-42.088 49.672-58.64 83.487-82.785 143.502-17.935 44.845-46.915 66.232-46.915 114.522 0 29.668 37.253 31.05 55.195 53.813 26.215 33.112 15.865 66.224 38.635 102.102 35.87 55.89 44.15 129.699 110.382 129.699 17.24 0 27.598-5.514 44.837-5.514h67.608c41.4 0 65.552 8.28 106.945 8.28 23.449 0 40.009 2.757 59.327-11.046 15.865-11.037 9.655-30.354 11.037-49.672 3.445-43.455 6.203-68.287 16.56-110.382 7.585-30.355 28.973-40.697 49.673-63.467v0l335.286 20.684v0c0 15.177 6.905 23.457 6.905 38.635 0 24.496-13.802 38.635-24.84 60.71-2.413 15.521-6.897 24.152-6.897 39.673v34.839c.344 2.078 2.757 3.101 2.757 5.523 0 17.247.688 27.589-4.14 44.149-3.101 11.038-13.107 12.764-19.317 22.075-13.115 19.318-20.013 31.738-27.59 53.813-8.28 23.801-11.74 38.291-16.56 63.475-3.101 16.208-5.522 26.91-15.177 40.009-4.484 6.218-5.523 13.459-12.42 16.56-30.699 14.139-20.7 49.673-27.598 82.785-2.414 12.764-9.998 18.638-17.935 28.98-16.903 22.075-12.076 42.088-19.317 68.99-5.179 19.317-19.318 27.254-19.318 47.251v29.675c0 13.451 1.383 26.215-9.662 33.456-9.655 6.21-17.591 6.898-27.59 12.42-13.803 7.593-20.013 15.873-34.495 22.075-11.778 5.125-20.639 6.569-29.377 14.238-4.476 3.949-3.995 3.139.382 6.042 8.738 5.82 11.572 14.085 15.193 25.252-4.836 28.973-27.59 36.214-42.768 60.71-26.222 42.431-40.712 68.303-77.277 102.102-27.246 25.184-54.5 21.044-86.925 40.018-20.692 12.076-21.036 34.839-42.767 44.15-8.624 3.46-15.185 1.382-24.84 1.382-6.898 0-11.038-2.757-17.935-2.757-11.733 0-16.904 9.655-23.458 19.317-9.654 14.139-15.177 22.77-26.214 35.87-10.007 11.733-17.943 18.279-33.12 22.083-11.038 2.757-19.654-2.07-28.973 4.14-15.872 10.35-12.764 27.933-26.215 41.392-28.636 28.629-46.915 43.462-67.615 78.645-29.667 50.711-59.671 70.716-85.542 122.802-5.179 10.694-16.904 8.624-26.222 16.56-9.312 7.936 0 20.012-5.515 30.355-7.241 13.115-17.599 17.591-30.355 24.832-10.19 5.821-15.964 12.138-25.795 16.041-5.805 2.284-7.233.832-1.673 5.11 13.406 10.38 23.328 21.403 23.328 39.223v29.66c0 24.152-26.91 31.73-51.055 35.533-1.039 16.553-.695 27.59-9.655 41.393-8.624 13.115-21.739 14.138-31.737 26.215-12.757 15.177-22.075 26.215-41.393 30.355l-1.382 5.522c10.006 4.835 15.177 12.069 15.177 22.77 0 13.444-.344 21.38-5.515 33.8-7.241 16.896-27.597 15.873-33.12 33.112-4.14 12.42-2.414 21.395-8.28 33.113-5.515 11.381-17.247 14.497-28.972 19.325-15.178 30.691-11.381 52.766-24.84 84.159-4.476 10.358-13.108 12.764-19.31 22.083-8.624 13.115-8.28 23.801-16.56 37.252-16.216 26.215-37.947 30.012-55.195 55.195-28.629 42.088-35.19 72.443-71.747 109-41.049 20.356-49.329 51.75-84.167 81.41-16.217 13.795-31.738 12.42-52.43 16.56-16.217 3.101-18.279 14.833-33.12 22.075-13.795 7.936-21.731 14.138-30.355 27.597-4.476 7.241-2.758 17.248-11.038 19.31-12.076 3.109-22.77-2.758-33.112 4.14-17.255 11.732-15.521 32.776-34.495 41.392-13.115 5.867-25.527 2.078-35.877 12.42-14.139 14.139-14.49 30.363-30.355 42.775-10.35 8.28-21.388 4.484-33.113 11.038-8.623 4.835-9.318 13.458-13.795 22.082-5.522 10.694-12.42 15.17-20.7 23.45-4.14 4.14-2.757 10.701-8.28 12.42-8.975 2.765-16.903 0-24.832 5.523-31.058 21.731-39.338 43.47-66.232 70.364-14.498 14.498-24.84 21.739-33.113 40.018-3.804 8.28-.351 16.903-6.905 23.457-5.858 5.859-14.49 1.719-22.075 5.515-21.043 11.045-28.972 24.496-46.915 40.018-25.871 22.418-41.736 33.456-66.224 57.952-16.217 16.216-23.458 29.667-44.158 38.635-32.073 14.138-51.047 21.387-78.644 42.767-13.803 10.701-14.842 24.153-26.215 37.26-18.982 21.395-31.058 32.425-51.055 52.43-15.521 15.521-17.255 32.776-35.878 44.157-32.073 20.013-55.53 23.45-84.167 48.29-13.115 11.381-14.139 25.535-28.972 34.495-11.038 6.898-19.661 7.936-30.355 15.178-12.764 8.623-22.075 12.763-31.738 24.832-8.623 10.701-7.24 28.98-21.036 28.98h-26.917c-8.96 0-12.756 7.241-19.662 12.42-16.208 12.412-19.31 25.527-31.73 41.392-4.834 6.218-11.037 6.554-17.942 11.038-21.731 14.49-34.831 28.98-61.046 28.98h-10.701c-17.248 8.616-25.871 18.278-42.767 27.59-12.084 6.561-21.396 5.178-33.12 12.42-31.05 19.317-45.533 35.533-78.645 51.054-26.223 12.077-49.336-1.038-73.13 15.178-18.638 12.756-31.05 17.935-48.297 31.73-11.733 9.319-17.256 22.082-32.425 22.082-29.324 0-44.838-13.802-74.161-13.802h-35.19c-10.343 0-16.217 5.522-26.56 5.522-32.768 0-50.015-13.802-82.784-13.802-36.572 0-52.437 24.84-88.307 33.12-23.457 5.179-39.33 14.833-51.055 35.877-7.592 13.795-19.31 20.013-19.31 35.87 0 11.381 6.89 16.904 6.89 28.293 0 7.928-9.311 11.724-17.247 11.724-51.4 0-78.653-17.942-129.005-28.98-16.56-3.444-23.457-16.552-40.361-16.552h-28.285c-15.185 0-20.7 12.412-32.081 22.075-16.216 14.139-29.316 20.356-37.253 40.01-8.623 21.044-1.726 36.572-5.522 59.335-1.719 11.037-15.521 12.412-26.91 12.412-30.699 0-45.876-20.692-76.575-20.692-12.412 0-19.317 5.522-31.73 5.522-21.043 0-26.558-26.222-47.61-26.222-13.443 0-21.043 2.765-34.495 2.765-61.053 0-87.612-49.673-148.665-49.673-13.115 0-20.7 1.375-33.808 1.375-32.776 0-43.462-35.869-76.23-35.869-43.814 0-66.577 16.208-106.25 35.869-19.318 38.635-58.992 28.98-100.04 28.98-38.635 0-65.194-3.445-94.51-28.98-22.77-19.661-32.769-44.149-62.787-44.149-61.398 0-84.848 57.952-146.26 57.952-9.999 0-14.139-8.28-24.137-8.28-10.694 0-14.834 8.975-24.84 12.42-17.248 6.21-27.934 14.49-37.253 30.355-7.592 12.756-3.452 33.112-18.278 33.112h-35.19c-13.1 0-17.24 12.076-25.176 22.075-12.764 15.873-23.114 25.879-42.775 31.738 1.038 4.483 2.062 7.241 2.062 12.076v20.356c-11.037 0-16.896.68-27.941.68-14.475 0-21.731-8.272-36.214-8.272-18.63 0-28.636 8.272-47.258 8.272H7339.8c-10.007 0-15.178-6.898-25.176-6.898-20.357 0-30.02 12.42-50.375 12.42-53.454 0-77.263-42.774-130.724-42.774h-33.815c-32.768 0-30.355 55.194-63.123 55.194-15.865 0-22.083-13.802-37.94-13.802-35.534 0-51.75 22.419-80.027 44.157-13.795 10.694-23.458 14.834-38.635 23.45-32.433 18.982-49.673 31.394-81.41 51.055-12.42 7.593-27.59 11.733-27.59 26.559v42.431l-5.522 8.28c-11.038-4.14-17.935-4.82-28.98-8.28-8.976-2.758-10.35-12.756-17.935-17.935-7.593-5.179-14.834-4.14-23.458-6.897-14.138-4.484-21.036-13.803-35.87-13.803-16.56 0-16.56 26.215-33.12 26.215-10.693 0-15.177-7.577-24.832-12.412-26.223-17.248-43.814-28.637-64.85-51.055-12.076-12.764-18.981-23.114-35.877-28.973-12.756-4.483-34.495 4.14-34.495-9.662 0-13.451 15.177-18.279 15.177-31.73 0-26.559-28.636-40.018-55.195-40.018-8.975 0-13.795 2.758-22.77 2.758-33.8 0-47.25-31.738-81.05-31.738h-26.918c-17.24 0-33.456-9.311-36.214-26.214-3.452-20.357.344-33.113-6.897-52.43-3.101-8.616-10.358-11.381-16.56-17.935-12.756-13.803-22.77-26.215-41.736-26.215h-50.513c-1.673 0-1.566-.206-1.589 1.466-.39 14.926-6.729 23.129-12.404 37.161-5.18 13.115-2.078 23.114-4.835 37.26.336 18.233 2.26 28.499.267 46.105-.298 2.796-.306 2.2-1.635.07-11.992-18.89-15.658-32.738-28.292-51.696-19.318-28.973-30.355-48.978-30.355-83.824v-37.94c0-20.692 5.179-35.877 20.692-49.328 6.562-5.523 14.139-6.203 17.943-13.803 9.655-19.653 5.515-34.487 5.515-56.57 0-18.278 2.765-29.66-2.758-46.915-5.522-16.552-24.84-13.795-35.87-27.589-18.286-23.122-28.636-36.558-42.782-62.093-8.272-15.177-22.075-18.622-31.73-33.112-15.177-22.763-24.832-36.916-46.915-53.813-11.381-8.623-19.661-12.763-27.597-24.84-5.515-8.623-15.178-12.763-15.178-23.457 0-11.725 16.56-11.037 28.285-11.037 14.834 0 21.731 12.42 36.573 12.42 2.413 0 3.437-2.422 5.515-2.758v-11.389c0-19.653-17.6-25.527-28.98-41.048-9.312-12.413-9.312-26.215-23.45-33.113-4.843-2.421-8.975-.343-13.803-2.765-6.21-3.437-6.553-10.335-9.655-16.552-11.037-20.7-16.56-34.839-16.56-58.64 0-18.974 7.585-40.705 26.559-40.705 4.14 0 6.561.695 10.694 1.383 11.725 0 18.622-5.523 30.355-5.523 12.076 0 18.286 5.523 30.355 5.523 12.083 0 17.598-10.007 24.84-19.318 17.24-21.387 16.56-40.361 20.692-67.615 4.14-26.215 1.039-42.072 8.28-67.607 4.14-14.482 8.28-22.762 8.28-37.94 0-25.535-12.42-38.635-12.42-64.162 0-4.14 2.421-6.562 2.421-10.702 0-28.621.344-45.181.344-73.809 0-52.094-37.26-76.59-37.26-128.669 0-9.693 3.132-15.131 4.988-24.03.779-3.728.206-2.88-3.369-2.88h-27.49c-25.52 0-32.769-24.137-48.634-44.149-19.317-24.497-24.84-42.08-34.495-71.755-18.973-57.601-30.355-89.683-59.335-142.112-81.257-147.94-183.305-294.429-246.979-452.574-6.897-17.24-14.497-26.223-22.075-42.775-14.833-32.081-17.255-52.43-26.222-86.925-2.414-9.662-7.929-14.146-11.03-23.457-12.42-37.253-16.224-59.679-26.223-97.97-4.835-19.318-13.115-28.629-20.692-46.907-26.223-63.475-46.571-97.97-62.092-165.577-9.32-41.057-11.733-65.889-30.355-103.485-7.6-15.521-11.733-27.598-27.598-34.495-10.35-4.484-18.278-.688-28.972-4.14-13.115-4.14-22.083-13.803-22.083-27.598 0-8.616 6.905-12.076 6.905-20.7 0-15.513-19.66-18.973-20.7-34.487 15.865-11.725 37.253-17.247 37.253-37.26 0-5.858-8.273-5.179-13.795-6.897-11.763-3.819-20.608-4.125-29.477-11.702-2.956-2.536-2.245-2.063 1.13-2.697 16.47-3.101 25.971-7.783 42.142-14.581 6.897-2.758 15.177-4.82 15.177-12.413 0-8.494-3.743-15.192-9.586-20.203v0c4.14 0 7.524.886 11.664.886 20.7 0 26.979-22.747 33.8-41.392 3.529-9.632 14.872-11.779 16.56-22.083 4.522-27.643-4.874-47.633 8.272-71.747 11.687-21.418 44.394-.283 60.718-19.318 16.613-19.378 2.07-60.71 27.59-60.71 34.502 0 50.42 25.482 71.754 52.43 17.981 22.724 63.468 9.663 63.468 38.635 0 11.038-5.515 16.56-5.515 27.598 0 4.827 9.7 1.367 11.03 5.522 4.193 13.077 2.765 22.075 2.765 35.87 0 11.037-5.523 16.56-5.523 27.597 0 27.598 22.602 36.665 35.877 60.71 12.245 22.174 7.593 57.953 33.113 57.953 13.802 0 19.317-13.795 33.12-13.795 31.05 0 40.705 35.87 71.747 35.87 20.7 0 30.355-16.553 51.055-16.553 15.873 0 15.391 19.188 23.457 33.113 7.112 12.29 20.028 13.749 33.113 19.317 19.333 8.227 31.05 19.317 52.43 19.317 24.152 0 33.807-22.074 57.952-22.074 19.317 0 24.84 22.074 44.157 22.074 62.085 0 96.58-11.037 158.672-11.037 36.573 0 48.298 41.392 84.863 41.392 41.392 0 66.446 5.874 106.93-2.757 8.127-1.734 2.757-13.1 2.757-21.38 0-24.152-19.318-34.502-19.318-58.647 0-30.363 49.031-6.157 74.513-22.083 29.705-18.561 32.257-48.084 63.467-66.225 15.903-9.25 39.422 9.457 55.195 0 17.247-10.342 22.075-30.355 42.087-30.355h53.813c16.972 0 27.131-10.922 40.055-17.4z" id="path198" fill="#408b41" fill-opacity="1" fill-rule="nonzero" stroke="#ecf0f1" stroke-width="88.987" stroke-miterlimit="4" stroke-dasharray="none" stroke-opacity=".941"/></g></svg>