<svg xmlns="http://www.w3.org/2000/svg" xml:space="preserve" width="183.464" height="163.958" version="1.0" viewBox="0 0 4854.162 4338.05" id="svg272" clip-rule="evenodd" fill-rule="evenodd" image-rendering="optimizeQuality" shape-rendering="geometricPrecision" text-rendering="geometricPrecision"><defs id="defs181"><style type="text/css" id="style179"><![CDATA[.str1{stroke:black;stroke-width:10;stroke-miterlimit:3.864;stroke-opacity:0.501961}.str3{stroke:black;stroke-width:50;stroke-miterlimit:3.864}.str2{stroke:#3F3E3F;stroke-width:10;stroke-miterlimit:3.864}.fil7{fill:none;fill-rule:nonzero}.fil2{fill:#FEFEFE}.fil0{fill:#FEFEFE}.fil5{fill:#D9DADA;fill-rule:nonzero}.fil6{fill:#2B2A29;fill-rule:nonzero}.fil4{fill:black;fill-rule:nonzero}.fil3{fill:#FEFEFE;fill-rule:nonzero;fill-opacity:0.501961}]]></style></defs><g id="Plan_x0020_1" transform="translate(-11347.739 -8000.25)" stroke="#000" stroke-width="36.46" stroke-miterlimit="4" stroke-dasharray="none"><path d="M11404.42 9368.19c8.13 34.32 2.85 59.56 2.85 94.79v74.06c0 40.64 37.94 50.59 65.03 82.19 51.49 60.52 85.82 93.04 115.61 166.19 14.45 36.13 8.14 64.13 28.9 97.54 13.56 21.68 41.55 17.17 54.19 39.74 22.59 40.65 23.49 72.26 25.29 119.22 2.72 68.65 76.78 84.91 140.9 108.39 32.52 11.75 19.88 53.29 28.91 86.7 20.78 74.98 81.28 91.24 119.22 158.97 17.17 31.62 31.62 64.13 68.64 65.03 28.01.91 56 .91 68.65 25.29 10.83 19.87-3.62 37.04 3.61 57.8 18.97 53.3 92.12 28.01 130.06 68.65 27.09 28.9 24.39 58.71 46.97 90.32 46.96 64.13 95.73 84.9 169.8 111.99 30.71 10.84 65.03 12.65 75.86 43.36 9.04 26.2-5.41 47.87 7.23 72.25 24.39 46.07 74.06 41.55 126.45 46.97 95.74 9.94 209.54 34.32 209.54 130.06 0 24.39-25.29 32.51-25.29 56.91v88.51c0 8.12 7.23 12.65 7.23 20.77 0 60.52-28.91 91.23-28.91 151.73 0 28.01 20.78 42.46 28.91 68.65 33.42 56.91 97.54 74.06 97.54 140v106.58c0 28.9 26.2 38.83 39.74 64.12 10.84 19.87 13.56 46.96 36.13 46.96 25.29 0 36.13-25.28 61.42-25.28s32.51 32.51 57.8 32.51c15.37 0 24.39-6.31 36.13-14.45 16.26 20.78 31.62 36.13 57.8 36.13 15.37 0 20.79-18.07 36.14-18.07 25.28 0 39.73 14.45 65.03 14.45 19.86 0 30.7-6.31 50.57-10.84l79.49 10.84 36.12-18.06c14.45 10.84 19.87 23.48 36.13 32.52 28.9 17.16 72.25 16.25 72.25 50.57 0 14.46-11.73 18.98-21.67 28.91 30.71 38.84 78.59 18.97 126.45 32.51 26.2 7.23 24.39 38.85 39.74 61.42 13.55 19.87 24.08 25.09 46.65 32.32l.32-.02c16.14-1.43 30.88.22 50.57.22 12.65 0 16.26 14.44 28.9 14.44 30.72 0 30.72-50.57 61.42-50.57 27.1 0 37.06 21.6 61.42 32.51 28.03 12.57 49.69.79 79.48 7.23 37.05 8.01 47.12 38.64 75.87 61.42 66.99 53.08 135.98 36.15 222.19 50.57 38.75 6.49 56.94 25.78 96.63 27.1 28.51.95 56.4-12.2 84.9-10.84 47.93 2.29 63.69 50.58 111.1 50.58 18.52 0 29.71-5.13 45.16-14.45 8.49-5.13 11.74-14.45 22.13-14.45h46.07c19.87 0 31.16 7.22 51.02 7.22 24.35 0 42.66-5.25 61.43-10.09v0l-.01-60.36 227.61-187.86 314.31-332.38c59.61-29.8 151.74-17.15 151.74-83.09 0-38.83-61.42-40.64-61.42-79.48 0-15.35 10.84-21.68 21.68-32.52 8.14-24.38 25.29-37.93 25.29-64.12v-131.86c0-73.17 93.93-72.26 133.67-132.78 18.98-28.9 6.33-56 14.45-90.32 5.42-23.49 21.68-32.52 32.52-54.19 14.45-29.8 16.26-56.9 43.35-75.87 15.37-10.84 31.62-10.84 43.36-25.29 25.29-29.8 24.39-56 46.96-86.71 9.94 5.42 13.56 18.06 25.29 18.06 38.84 0 50.58-47.86 50.58-86.7 0-39.74-15.34-61.42-18.06-101.16 0-33.41-6.32-70.45-39.74-75.87 0-29.8 5.42-54.19-14.46-75.87-21.67-23.48-46.96-36.13-46.96-68.64 0-68.64 79.48-90.32 79.48-158.96 0-33.41-57.8-31.61-57.8-65.03 0-52.39 0-89.41 32.51-130.07 18.97-24.37 46.07-36.13 46.07-67.73 0-35.23-.91-56 0-91.23 39.74 0 62.31-32.51 76.76-68.64 10.84-27.1 28.91-41.55 28.91-71.35v-87.61l-54.19-137.29c4.52-39.74 27.09-58.7 50.58-90.32 29.81-40.64 30.7-74.96 46.96-122.84 5.42-17.15 18.07-27.99 18.07-46.96 0-39.74-83.1-18.07-83.1-57.81 0-85.8 43.35-130.95 43.35-216.77 0-49.66-3.61-85.79-36.12-122.83-16.26-18.06-46.97-21.68-46.97-46.96 0-45.17 68.64-48.78 68.64-93.94 0-18.96-24.38-19.87-39.74-28.9-11.73-7.23-7.22-23.48-18.06-32.52-35.22-29.79-63.23-40.63-104.77-61.41-71.35-35.22-106.58-71.35-184.25-93.93-65.04-18.97-107.48-10.84-169.81-36.13-74.06-30.71-96.63-104.77-177.02-104.77-47.87 0-74.96 18.06-122.84 18.06-37.02 0-62.31-24.38-75.87-57.81-9.03-23.48.92-53.28-21.67-65.03-50.58-26.18-86.71-39.74-144.52-39.74-63.22 0-88.51 57.81-151.73 57.81-24.38 0-32.52-21.68-54.19-32.52-24.38-11.73-44.25 0-72.26 0-55.09 0-86.71 14.45-141.79 14.45-15.37 0-23.49-2.7-38.85-3.61v-130.95c0-35.24.85-36.06-4.57-71.29l-.59.07c-20.4 2.57-51.55-11.12-73.41-10.98-34.3.23-54.19-7.23-88.51-7.23h-88.52c-84.9 0-118.32 75.87-203.23 75.87-37.02 0-56.89-18.06-93.93-18.06-39.74 0-39.62 52.65-75.86 68.64-25.18 11.11-51.51-14.48-72.26 3.61-21.7 18.92 13.74 65.55-14.45 75.87-34.89 12.77-44.25-50.58-81.29-50.58-25.29 0-59.61 4.51-59.61 29.8 0 32.21-2.49 64.53 0 96.65 1.15 14.85 15.28 29.14 10.84 43.35-14.46 46.27.09 74.99-10.84 119.22-8.94 36.15-32.52 49.67-54.19 79.49-48.7 135.91-177.44 108.73-286.53 123.43-141.47 19.06-266.02 128.88-373.18 222.07-34.82 39.51-62.45 100.2-91.25 145.31l-85.76 134.33c-40.57 63.54-111.92 179.86-176.68 222.06-18.97 16.26-44.25 18.96-63.22 34.32-18.96 15.35-27.06 36.25-50.58 43.35-33.37 10.07-62.29-9.89-90.31 10.84-17.14 12.67-18.07 39.74-39.75 39.74-43.35 0-59.65-31.56-93.93-57.8-38.86-29.75-69.54-46.97-119.22-46.97-42.45 0-59.61 39.74-102.06 39.74h-74.06c-23.48 0-36.13-7.22-59.61-7.22h-77.67c-43.36 0-55.11-50.58-98.46-50.58-34.32 0-52.38 14.44-86.71 14.44-34.32 0-52.38-21.67-86.7-21.67-37.03 0-56.9 21.67-93.94 21.67-53.56 0-80.79-37.63-107.62-81.23z" id="path192" fill="#408b41" fill-opacity="1" fill-rule="nonzero" stroke="#ecf0f1" stroke-width="116.5" stroke-miterlimit="4" stroke-dasharray="none" stroke-opacity=".941"/></g></svg>